<svg height="512" viewBox="0 0 64 64" width="512" xmlns="http://www.w3.org/2000/svg"><g id="graduate-online-education-laptop"><path d="m61 52v4a2.006 2.006 0 0 1 -2 2h-54a2.006 2.006 0 0 1 -2-2v-4z" fill="#acabb1"/><path d="m59 52h-54v-28a2 2 0 0 1 2-2h50a2 2 0 0 1 2 2z" fill="#e9e9ea"/><path d="m9 26h46v22h-46z" fill="#2488ff"/><path d="m28 52h8v3h-8z" fill="#3e3d42"/><path d="m50 14v34h-36v-42h28v8z" fill="#00aeef"/><path d="m50 14h-8v-8z" fill="#0083b3"/><g fill="#c2fb3b"><path d="m29 20h-6a1 1 0 0 0 -1 1v13h2v-6h4v6h2v-13a1 1 0 0 0 -1-1zm-1 6h-4v-4h4z"/><path d="m38 23h-2v3h-3v2h3v3h2v-3h3v-2h-3z"/></g></g></svg>