<svg id="Capa_1" enable-background="new 0 0 512 512" height="512" viewBox="0 0 512 512" width="512" xmlns="http://www.w3.org/2000/svg"><g><g><g><g><g><path d="m477.723 312.838c15.861 0 26.302-16.538 19.48-30.858l-22.387-46.995c-1.334-2.8-2.045-5.856-2.083-8.958l-.428-34.517c0-100.605-80.782-183.657-181.386-184.005-100.828-.349-182.675 81.282-182.675 182.03 0 41.395 13.818 79.563 37.092 110.143 17.904 23.524 27.441 52.352 27.441 81.914v105.017h173.545v-49.847c0-11.481 10.191-20.286 21.55-18.62l52.398 7.685c18.867 2.767 35.795-11.858 35.796-30.927l.003-60.618c0-11.925 9.729-21.559 21.654-21.444z" fill="#ffece3"/></g><g><g><path d="m327.513 412.275c-11.359-1.666-21.55 7.139-21.55 18.62v55.714h40.36v-49.847c0-11.032 9.411-19.588 20.226-18.762z" fill="#ffddce"/></g><path d="m497.203 281.981-22.387-46.995c-1.334-2.8-2.045-5.856-2.083-8.958l-.428-34.517c0-98.911-78.086-180.852-176.324-183.914 78.429 20.741 135.964 93.143 135.964 178.046l.428 34.517c.038 3.101.749 6.158 2.083 8.958l22.387 46.995c6.821 14.319-3.619 30.858-19.48 30.858-11.925-.115-21.653 9.519-21.654 21.445l-.003 60.618c-.001 18.464-15.87 32.76-34.004 31.138l38.568 5.657c18.867 2.767 35.795-11.858 35.796-30.927l.003-60.618c.001-11.925 9.73-21.56 21.654-21.445 15.861-.001 26.302-16.539 19.48-30.858z" fill="#ffddce"/></g><path d="m357.393 504.495-197.218-.189c-9.789-.009-17.719-7.947-17.719-17.736v-24.394c0-10.44 8.973-18.622 19.369-17.66l197.218 18.236c9.124.844 16.103 8.498 16.103 17.66v6.347c-.001 9.802-7.952 17.745-17.753 17.736z" fill="#8db9c2"/><g><path d="m359.043 462.752-24.571-2.272v26.279c0 9.542-7.541 17.3-16.983 17.698l39.904.038c9.802.009 17.753-7.934 17.753-17.736v-6.347c-.001-9.162-6.98-16.816-16.103-17.66z" fill="#7ba0b0"/></g></g><g><g><g><path d="m178.82 378.731h-31.69c-16.928 0-30.65-13.722-30.65-30.65v-43.023h92.99v43.023c0 16.928-13.722 30.65-30.65 30.65z" fill="#daeaef"/><path d="m168.797 305.058v43.023c0 15.401-11.361 28.145-26.158 30.319 1.467.215 2.966.331 4.492.331h31.69c16.928 0 30.65-13.723 30.65-30.65v-43.023z" fill="#c9e2e7"/><path d="m266.606 160.132c0-58.313-47.679-105.49-106.179-104.675-57.391.8-103.791 48.409-103.185 105.803.263 24.923 9.237 47.756 24.021 65.602 23.093 27.875 36.365 62.57 36.365 98.768v.158h88.586v-.164c0-35.967 12.819-70.699 35.939-98.251 15.261-18.188 24.453-41.64 24.453-67.241z" fill="#fbe77b"/><path d="m160.427 55.457c-6.488.09-12.834.785-18.989 2.018 47.961 9.561 84.107 51.885 84.107 102.656 0 25.601-9.191 49.054-24.453 67.241-23.12 27.552-35.939 62.283-35.939 98.25v.164h41.061v-.164c0-35.967 12.819-70.699 35.939-98.25 15.262-18.188 24.453-41.64 24.453-67.241 0-58.312-47.679-105.49-106.179-104.674z" fill="#fcdd2e"/><path d="m209.861 345.822h-95.88c-5.295 0-9.588-4.293-9.588-9.588v-36.231c0-5.295 4.293-9.588 9.588-9.588h95.88c5.295 0 9.588 4.293 9.588 9.588v36.231c0 5.295-4.293 9.588-9.588 9.588z" fill="#eff3f5"/></g></g><path d="m216.723 148.495c-8.362 0-12.55-10.11-6.637-16.023 4.099-4.099 4.099-10.745 0-14.844l-3.984-3.984c-4.099-4.099-10.745-4.099-14.844 0-5.913 5.913-16.023 1.725-16.023-6.637 0-5.797-4.699-10.496-10.496-10.496h-5.635c-5.797 0-10.496 4.699-10.496 10.496 0 8.362-10.11 12.55-16.023 6.637-4.099-4.099-10.745-4.099-14.844 0l-3.984 3.984c-4.099 4.099-4.099 10.745 0 14.844 5.913 5.913 1.725 16.023-6.637 16.023-5.797 0-10.496 4.699-10.496 10.496v5.635c0 5.797 4.699 10.496 10.496 10.496 8.362 0 12.55 10.11 6.637 16.023-4.099 4.099-4.099 10.745 0 14.844l3.984 3.984c4.099 4.099 10.745 4.099 14.844 0 5.913-5.913 16.023-1.725 16.023 6.637 0 5.797 4.699 10.496 10.496 10.496h5.635c5.797 0 10.496-4.699 10.496-10.496 0-8.362 10.11-12.55 16.023-6.637 4.099 4.099 10.745 4.099 14.844 0l3.984-3.984c4.099-4.099 4.099-10.745 0-14.844-5.913-5.913-1.725-16.023 6.637-16.023 5.797 0 10.496-4.699 10.496-10.496v-5.635c0-5.797-4.699-10.496-10.496-10.496zm-54.802 31.861c-10.244 0-18.548-8.304-18.548-18.548s8.304-18.548 18.548-18.548 18.548 8.304 18.548 18.548-8.305 18.548-18.548 18.548z" fill="#d5b0ec"/></g></g><path d="m209.861 290.414h-40.673c5.295 0 9.588 4.293 9.588 9.588v36.231c0 5.295-4.293 9.588-9.588 9.588h40.673c5.295 0 9.588-4.293 9.588-9.588v-36.231c0-5.295-4.293-9.588-9.588-9.588z" fill="#daeaef"/></g><g><g><path d="m161.921 32.421c4.145 0 7.505-3.36 7.505-7.505v-14.481c0-4.145-3.36-7.505-7.505-7.505s-7.505 3.36-7.505 7.505v14.481c0 4.144 3.36 7.505 7.505 7.505z"/><path d="m262.53 69.698 10.239-10.24c2.931-2.931 2.931-7.683 0-10.613-2.931-2.932-7.683-2.931-10.613 0l-10.239 10.24c-2.931 2.931-2.931 7.683 0 10.613 1.465 1.466 3.386 2.198 5.307 2.198 1.92 0 3.84-.733 5.306-2.198z"/><path d="m61.312 249.688-10.24 10.239c-2.931 2.931-2.931 7.682 0 10.613 1.465 1.466 3.386 2.198 5.307 2.198s3.841-.733 5.307-2.198l10.24-10.239c2.931-2.931 2.931-7.682 0-10.613s-7.683-2.931-10.614 0z"/><path d="m311.178 167.198c4.145 0 7.505-3.36 7.505-7.505s-3.36-7.505-7.505-7.505h-14.48c-4.145 0-7.505 3.36-7.505 7.505s3.36 7.505 7.505 7.505z"/><path d="m27.144 152.188h-14.481c-4.145 0-7.505 3.36-7.505 7.505s3.36 7.505 7.505 7.505h14.481c4.145 0 7.505-3.36 7.505-7.505s-3.361-7.505-7.505-7.505z"/><path d="m262.53 249.688c-2.931-2.931-7.683-2.931-10.613 0-2.931 2.931-2.931 7.683 0 10.613l9.383 9.383c1.465 1.465 3.386 2.198 5.307 2.198s3.841-.733 5.307-2.198c2.931-2.931 2.931-7.683 0-10.613z"/><path d="m61.312 69.698c1.465 1.465 3.386 2.198 5.307 2.198s3.841-.733 5.307-2.198c2.931-2.931 2.931-7.683 0-10.613l-10.24-10.24c-2.931-2.931-7.683-2.931-10.613 0-2.931 2.931-2.931 7.683 0 10.613z"/><path d="m137.891 215.28c.59-.589 1.279-.726 2.05-.408.771.32 1.161.904 1.161 1.738 0 9.926 8.075 18.001 18.001 18.001h5.635c9.926 0 18.001-8.075 18.001-18.001 0-.834.391-1.419 1.161-1.738.771-.318 1.46-.182 2.05.408 3.4 3.4 7.92 5.272 12.728 5.272s9.329-1.872 12.729-5.272l3.985-3.985c3.4-3.4 5.272-7.92 5.272-12.728s-1.872-9.329-5.272-12.729c-.59-.59-.727-1.28-.408-2.05.32-.771.904-1.161 1.738-1.161 9.926 0 18.001-8.075 18.001-18.001v-5.635c0-9.926-8.076-18.001-18.001-18.001-.834 0-1.418-.391-1.738-1.161-.319-.771-.182-1.46.408-2.05 3.4-3.4 5.272-7.92 5.272-12.729 0-4.808-1.872-9.329-5.272-12.728l-3.984-3.985c-3.4-3.4-7.921-5.272-12.729-5.272s-9.329 1.872-12.728 5.272c-.591.589-1.28.726-2.05.408-.771-.32-1.161-.904-1.161-1.738 0-9.926-8.075-18.001-18.001-18.001h-5.635c-9.926 0-18.001 8.075-18.001 18.001 0 .834-.391 1.419-1.161 1.738-.771.319-1.46.181-2.05-.408-3.4-3.4-7.921-5.272-12.728-5.272-4.808 0-9.329 1.872-12.729 5.273l-3.984 3.984c-3.4 3.4-5.272 7.921-5.272 12.729s1.872 9.329 5.272 12.729c.59.59.727 1.28.407 2.05-.319.771-.904 1.161-1.738 1.161-9.926 0-18.001 8.075-18.001 18.001v5.635c0 9.926 8.075 18.001 18.001 18.001.834 0 1.419.391 1.738 1.161.32.771.182 1.46-.407 2.05-3.4 3.4-5.272 7.921-5.272 12.729s1.872 9.329 5.272 12.728l3.985 3.985c7.017 7.017 18.437 7.017 25.455-.001zm-30.772-47.663c-1.65 0-2.991-1.342-2.991-2.991v-5.635c0-1.65 1.342-2.991 2.991-2.991 6.856 0 12.982-4.093 15.605-10.427 2.624-6.334 1.186-13.56-3.662-18.408-.762-.762-.876-1.652-.876-2.115s.113-1.352.877-2.116l3.984-3.984c1.166-1.167 3.064-1.168 4.23 0 4.848 4.848 12.074 6.284 18.407 3.662 6.335-2.623 10.428-8.749 10.428-15.605 0-1.65 1.342-2.991 2.991-2.991h5.635c1.65 0 2.991 1.342 2.991 2.991 0 6.856 4.093 12.982 10.427 15.605 6.334 2.625 13.559 1.187 18.408-3.662.762-.762 1.652-.876 2.115-.876s1.352.113 2.115.876l3.985 3.985c1.166 1.166 1.166 3.064 0 4.23-4.848 4.848-6.285 12.073-3.662 18.407 2.624 6.334 8.749 10.427 15.605 10.427 1.65 0 2.992 1.342 2.992 2.991v5.635c0 1.65-1.342 2.991-2.992 2.991-6.856 0-12.981 4.093-15.605 10.427s-1.187 13.56 3.662 18.407c1.166 1.166 1.166 3.064 0 4.23l-3.985 3.985c-1.167 1.166-3.064 1.166-4.23 0-4.848-4.848-12.075-6.285-18.407-3.662-6.334 2.624-10.427 8.749-10.427 15.605 0 1.65-1.342 2.991-2.991 2.991h-5.635c-1.65 0-2.991-1.342-2.991-2.991 0-6.857-4.093-12.982-10.428-15.605-2.102-.871-4.302-1.294-6.481-1.294-4.387 0-8.687 1.716-11.926 4.955-1.167 1.167-3.064 1.166-4.23 0l-3.985-3.985c-.762-.762-.876-1.652-.876-2.115s.113-1.352.876-2.115c4.848-4.848 6.285-12.073 3.662-18.407-2.625-6.332-8.75-10.425-15.606-10.425z"/><path d="m161.921 187.861c14.365 0 26.053-11.687 26.053-26.053s-11.687-26.053-26.053-26.053c-14.365 0-26.053 11.687-26.053 26.053s11.687 26.053 26.053 26.053zm0-37.096c6.089 0 11.043 4.954 11.043 11.043s-4.954 11.043-11.043 11.043-11.043-4.954-11.043-11.043 4.954-11.043 11.043-11.043z"/><path d="m503.979 278.753-22.387-46.994c-.861-1.808-1.329-3.822-1.354-5.824l-.428-34.424c0-105.238-84.725-191.15-188.865-191.51-.22-.001-.44-.001-.661-.001-33.852 0-67.061 9.028-96.077 26.127-3.571 2.104-4.76 6.705-2.656 10.276s6.705 4.76 10.276 2.656c26.709-15.739 57.283-24.049 88.457-24.049.203 0 .406 0 .609.001 95.892.332 173.907 79.51 173.908 176.593l.428 34.516c.051 4.157 1.024 8.338 2.812 12.093l22.387 46.994c4.49 9.426-2.437 20.125-12.632 20.126-16.053-.188-29.231 12.804-29.232 28.949l-.003 60.618c-.001 14.5-12.877 25.597-27.201 23.502l-52.398-7.685c-15.891-2.331-30.144 10.001-30.144 26.046v16.582l-158.535-14.659v-24.869c0-4.145-3.36-7.505-7.505-7.505s-7.505 3.36-7.505 7.505v23.481l-2.757-.255c-14.783-1.369-27.565 10.291-27.565 25.134v24.394c0 13.905 11.312 25.228 25.217 25.241l197.217.188h.025c13.939 0 25.24-11.279 25.24-25.241v-6.347c0-13.121-9.852-23.926-22.917-25.134l-5.906-.546v-17.97c0-6.912 6.106-12.195 12.956-11.195l52.398 7.685c23.402 3.434 44.388-14.729 44.389-38.352l.003-60.618c.001-7.724 6.277-14.03 14.15-13.94 21.356.001 35.458-22.272 26.256-41.589zm-136.339 201.66v6.347c0 5.65-4.572 10.231-10.231 10.231-.003 0-.007 0-.01 0l-197.218-.189c-5.636-.005-10.221-4.595-10.221-10.231v-24.394c0-5.981 5.123-10.749 11.173-10.187l10.873 1.005c.003 0 .005 0 .008.001l186.337 17.23c5.296.489 9.289 4.868 9.289 10.187z"/><path d="m147.13 386.236h31.69c19.769 0 36.071-15.112 37.968-34.39 5.981-2.664 10.167-8.654 10.167-15.612v-36.231c0-5.912-3.018-11.13-7.593-14.201 5.628-19.536 15.409-37.956 28.54-53.605 61.87-73.728 7.848-185.511-87.579-184.244-94.071 1.311-144.527 111.648-84.839 183.696 13.306 16.062 23.214 34.69 28.91 54.211-4.526 3.078-7.506 8.268-7.506 14.142v36.231c0 7.786 5.238 14.359 12.371 16.415 2.265 18.892 18.379 33.588 37.871 33.588zm-33.15-47.919c-1.149 0-2.083-.934-2.083-2.083v-36.231c0-1.149.934-2.083 2.083-2.083h95.867c.025.002.05.005.075.006 1.119.034 2.021.95 2.021 2.077v36.231c0 1.149-.935 2.083-2.083 2.083zm64.84 32.909h-31.69c-10.958 0-20.155-7.657-22.538-17.9h76.766c-2.383 10.243-11.58 17.9-22.538 17.9zm-18.288-308.265c83.237-1.098 128.955 96.328 75.872 159.588-14.757 17.585-25.679 38.349-31.825 60.361h-85.415c-6.207-21.936-17.232-42.862-32.122-60.836-51.718-62.429-7.932-157.977 73.49-159.113z"/></g></g></g></svg>